<?xml version="1.0" encoding="UTF-8" standalone="no"?>
<!-- Created with Inkscape (http://www.inkscape.org/) -->

<svg
   xmlns:dc="http://purl.org/dc/elements/1.1/"
   xmlns:cc="http://creativecommons.org/ns#"
   xmlns:rdf="http://www.w3.org/1999/02/22-rdf-syntax-ns#"
   xmlns:svg="http://www.w3.org/2000/svg"
   xmlns="http://www.w3.org/2000/svg"
   xmlns:sodipodi="http://sodipodi.sourceforge.net/DTD/sodipodi-0.dtd"
   xmlns:inkscape="http://www.inkscape.org/namespaces/inkscape"
   width="49.846336mm"
   height="30.082186mm"
   viewBox="0 0 49.846337 30.082186"
   version="1.1"
   id="svg1003"
   inkscape:version="0.92.4 5da689c313, 2019-01-14"
   sodipodi:docname="one_sc_schematic.svg">
  <defs
     id="defs997">
    <marker
       inkscape:isstock="true"
       style="overflow:visible"
       id="marker2391"
       refX="0"
       refY="0"
       orient="auto"
       inkscape:stockid="Arrow2Lend">
      <path
         transform="matrix(-1.1,0,0,-1.1,-1.1,0)"
         d="M 8.7185878,4.0337352 -2.2072895,0.01601326 8.7185884,-4.0017078 c -1.7454984,2.3720609 -1.7354408,5.6174519 -6e-7,8.035443 z"
         style="fill:#000000;fill-opacity:1;fill-rule:evenodd;stroke:#000000;stroke-width:0.625;stroke-linejoin:round;stroke-opacity:1"
         id="path2389"
         inkscape:connector-curvature="0" />
    </marker>
    <marker
       inkscape:stockid="Arrow2Lstart"
       orient="auto"
       refY="0"
       refX="0"
       id="marker1978"
       style="overflow:visible"
       inkscape:isstock="true">
      <path
         inkscape:connector-curvature="0"
         id="path974"
         style="fill:#000000;fill-opacity:1;fill-rule:evenodd;stroke:#000000;stroke-width:0.625;stroke-linejoin:round;stroke-opacity:1"
         d="M 8.7185878,4.0337352 -2.2072895,0.01601326 8.7185884,-4.0017078 c -1.7454984,2.3720609 -1.7354408,5.6174519 -6e-7,8.035443 z"
         transform="matrix(1.1,0,0,1.1,1.1,0)" />
    </marker>
    <marker
       inkscape:stockid="Arrow2Lend"
       orient="auto"
       refY="0"
       refX="0"
       id="marker952"
       style="overflow:visible"
       inkscape:isstock="true">
      <path
         inkscape:connector-curvature="0"
         id="path950"
         style="fill:#000000;fill-opacity:1;fill-rule:evenodd;stroke:#000000;stroke-width:0.625;stroke-linejoin:round;stroke-opacity:1"
         d="M 8.7185878,4.0337352 -2.2072895,0.01601326 8.7185884,-4.0017078 c -1.7454984,2.3720609 -1.7354408,5.6174519 -6e-7,8.035443 z"
         transform="matrix(-1.1,0,0,-1.1,-1.1,0)" />
    </marker>
    <marker
       inkscape:stockid="Arrow2Mstart"
       orient="auto"
       refY="0"
       refX="0"
       id="Arrow2Mstart-3"
       style="overflow:visible"
       inkscape:isstock="true">
      <path
         inkscape:connector-curvature="0"
         id="path1836-6"
         style="fill:#000000;fill-opacity:1;fill-rule:evenodd;stroke:#000000;stroke-width:0.625;stroke-linejoin:round;stroke-opacity:1"
         d="M 8.7185878,4.0337352 -2.2072895,0.01601326 8.7185884,-4.0017078 c -1.7454984,2.3720609 -1.7354408,5.6174519 -6e-7,8.035443 z"
         transform="scale(0.6)" />
    </marker>
    <marker
       inkscape:stockid="Arrow2Mstart"
       orient="auto"
       refY="0"
       refX="0"
       id="Arrow2Mstart"
       style="overflow:visible"
       inkscape:isstock="true">
      <path
         inkscape:connector-curvature="0"
         id="path1836"
         style="fill:#000000;fill-opacity:1;fill-rule:evenodd;stroke:#000000;stroke-width:0.625;stroke-linejoin:round;stroke-opacity:1"
         d="M 8.7185878,4.0337352 -2.2072895,0.01601326 8.7185884,-4.0017078 c -1.7454984,2.3720609 -1.7354408,5.6174519 -6e-7,8.035443 z"
         transform="scale(0.6)" />
    </marker>
    <marker
       inkscape:isstock="true"
       style="overflow:visible"
       id="marker2500-2"
       refX="0"
       refY="0"
       orient="auto"
       inkscape:stockid="Arrow2Mend">
      <path
         inkscape:connector-curvature="0"
         transform="scale(-0.6)"
         d="M 8.7185878,4.0337352 -2.2072895,0.01601326 8.7185884,-4.0017078 c -1.7454984,2.3720609 -1.7354408,5.6174519 -6e-7,8.035443 z"
         style="fill:#000000;fill-opacity:1;fill-rule:evenodd;stroke:#000000;stroke-width:0.625;stroke-linejoin:round;stroke-opacity:1"
         id="path2498-9" />
    </marker>
    <marker
       inkscape:isstock="true"
       style="overflow:visible"
       id="marker2500"
       refX="0"
       refY="0"
       orient="auto"
       inkscape:stockid="Arrow2Mend">
      <path
         inkscape:connector-curvature="0"
         transform="scale(-0.6)"
         d="M 8.7185878,4.0337352 -2.2072895,0.01601326 8.7185884,-4.0017078 c -1.7454984,2.3720609 -1.7354408,5.6174519 -6e-7,8.035443 z"
         style="fill:#000000;fill-opacity:1;fill-rule:evenodd;stroke:#000000;stroke-width:0.625;stroke-linejoin:round;stroke-opacity:1"
         id="path2498" />
    </marker>
    <marker
       inkscape:isstock="true"
       style="overflow:visible"
       id="marker2172"
       refX="0"
       refY="0"
       orient="auto"
       inkscape:stockid="Arrow2Mend">
      <path
         inkscape:connector-curvature="0"
         transform="scale(-0.6)"
         d="M 8.7185878,4.0337352 -2.2072895,0.01601326 8.7185884,-4.0017078 c -1.7454984,2.3720609 -1.7354408,5.6174519 -6e-7,8.035443 z"
         style="fill:#000000;fill-opacity:1;fill-rule:evenodd;stroke:#000000;stroke-width:0.625;stroke-linejoin:round;stroke-opacity:1"
         id="path2170" />
    </marker>
    <marker
       inkscape:isstock="true"
       style="overflow:visible"
       id="marker1282"
       refX="0"
       refY="0"
       orient="auto"
       inkscape:stockid="Arrow2Lstart">
      <path
         inkscape:connector-curvature="0"
         transform="matrix(1.1,0,0,1.1,1.1,0)"
         d="M 8.7185878,4.0337352 -2.2072895,0.01601326 8.7185884,-4.0017078 c -1.7454984,2.3720609 -1.7354408,5.6174519 -6e-7,8.035443 z"
         style="fill:#000000;fill-opacity:1;fill-rule:evenodd;stroke:#000000;stroke-width:0.625;stroke-linejoin:round;stroke-opacity:1"
         id="path1280" />
    </marker>
    <marker
       inkscape:stockid="Arrow2Lend"
       orient="auto"
       refY="0"
       refX="0"
       id="Arrow2Lend"
       style="overflow:visible"
       inkscape:isstock="true"
       inkscape:collect="always">
      <path
         inkscape:connector-curvature="0"
         id="path1833"
         style="fill:#000000;fill-opacity:1;fill-rule:evenodd;stroke:#000000;stroke-width:0.625;stroke-linejoin:round;stroke-opacity:1"
         d="M 8.7185878,4.0337352 -2.2072895,0.01601326 8.7185884,-4.0017078 c -1.7454984,2.3720609 -1.7354408,5.6174519 -6e-7,8.035443 z"
         transform="matrix(-1.1,0,0,-1.1,-1.1,0)" />
    </marker>
    <marker
       inkscape:isstock="true"
       style="overflow:visible"
       id="marker13061"
       refX="0"
       refY="0"
       orient="auto"
       inkscape:stockid="Arrow2Lend"
       inkscape:collect="always">
      <path
         inkscape:connector-curvature="0"
         transform="matrix(-1.1,0,0,-1.1,-1.1,0)"
         d="M 8.7185878,4.0337352 -2.2072895,0.01601326 8.7185884,-4.0017078 c -1.7454984,2.3720609 -1.7354408,5.6174519 -6e-7,8.035443 z"
         style="fill:#000000;fill-opacity:1;fill-rule:evenodd;stroke:#000000;stroke-width:0.625;stroke-linejoin:round;stroke-opacity:1"
         id="path13059" />
    </marker>
  </defs>
  <sodipodi:namedview
     id="base"
     pagecolor="#ffffff"
     bordercolor="#666666"
     borderopacity="1.0"
     inkscape:pageopacity="0.0"
     inkscape:pageshadow="2"
     inkscape:zoom="22.627417"
     inkscape:cx="182.9152"
     inkscape:cy="82.09373"
     inkscape:document-units="mm"
     inkscape:current-layer="layer1"
     showgrid="false"
     inkscape:window-width="1920"
     inkscape:window-height="1080"
     inkscape:window-x="0"
     inkscape:window-y="0"
     inkscape:window-maximized="0"
     inkscape:snap-bbox="true"
     inkscape:bbox-paths="true"
     inkscape:snap-bbox-edge-midpoints="true"
     inkscape:bbox-nodes="true"
     inkscape:snap-bbox-midpoints="true"
     inkscape:object-paths="true"
     inkscape:snap-smooth-nodes="true"
     inkscape:snap-intersection-paths="true"
     inkscape:snap-object-midpoints="true"
     inkscape:snap-center="true"
     inkscape:snap-text-baseline="true"
     inkscape:snap-midpoints="true"
     inkscape:snap-page="true" />
  <metadata
     id="metadata1000">
    <rdf:RDF>
      <cc:Work
         rdf:about="">
        <dc:format>image/svg+xml</dc:format>
        <dc:type
           rdf:resource="http://purl.org/dc/dcmitype/StillImage" />
        <dc:title />
      </cc:Work>
    </rdf:RDF>
  </metadata>
  <g
     inkscape:label="Layer 1"
     inkscape:groupmode="layer"
     id="layer1"
     transform="translate(-134.80783,-56.528156)">
    <path
       style="fill:#eccf65;fill-opacity:1;stroke:#000000;stroke-width:0.134;stroke-linecap:butt;stroke-linejoin:miter;stroke-miterlimit:4;stroke-dasharray:none;stroke-opacity:1"
       d="M 134.87505,86.476251 V 76.15332 l 16.57063,-12.40171 16.57064,12.40171 16.57061,-12.40171 -0.0194,22.791641 -49.69248,-0.067"
       id="path1647"
       inkscape:connector-curvature="0" />
    <path
       style="fill:#e6e6e6;fill-opacity:1;stroke:#000000;stroke-width:0.13443469;stroke-linecap:butt;stroke-linejoin:miter;stroke-miterlimit:4;stroke-dasharray:none;stroke-opacity:1"
       d="m 134.87505,76.15332 16.57063,-12.40171 16.57064,12.40171 16.57063,-12.40171 V 56.66242 L 168.01632,69.06413 151.44568,56.66242 134.87505,69.06413 v 7.08919"
       id="path1365"
       inkscape:connector-curvature="0" />
    <path
       style="fill:none;stroke:#000000;stroke-width:0.1;stroke-linecap:butt;stroke-linejoin:miter;stroke-miterlimit:4;stroke-dasharray:none;stroke-opacity:1;marker-end:url(#marker13061)"
       d="M 151.44568,76.15864 V 64.14255"
       id="path1808"
       inkscape:connector-curvature="0" />
    <path
       inkscape:connector-curvature="0"
       id="path1810"
       d="m 135.22343,76.15332 h 32.5331"
       style="fill:none;stroke:#000000;stroke-width:0.1;stroke-linecap:butt;stroke-linejoin:miter;stroke-miterlimit:4;stroke-dasharray:none;stroke-opacity:1;marker-start:url(#marker1282);marker-end:url(#Arrow2Lend)" />
    <g
       id="g12857"
       transform="matrix(1.509353,0,0,1.509353,125.49491,-11.0327)">
      <g
         word-spacing="normal"
         letter-spacing="normal"
         font-size-adjust="none"
         font-stretch="normal"
         font-weight="normal"
         font-variant="normal"
         font-style="normal"
         stroke-miterlimit="10.433"
         xml:space="preserve"
         transform="matrix(0.05710431,0,0,-0.05710431,-9.9932537,82.797112)"
         id="g12855"
         style="font-style:normal;font-variant:normal;font-weight:normal;font-stretch:normal;letter-spacing:normal;word-spacing:normal;text-anchor:start;fill:none;fill-opacity:1;fill-rule:evenodd;stroke:#000000;stroke-linecap:butt;stroke-linejoin:miter;stroke-miterlimit:10.43299961;stroke-dasharray:none;stroke-dashoffset:0;stroke-opacity:1"><path
           id="path12851"
           d="m 462.14,410.34 0.25,0.27 0.24,0.25 0.24,0.25 0.23,0.24 0.22,0.23 0.22,0.22 0.21,0.22 0.2,0.21 0.2,0.2 0.2,0.19 0.19,0.19 0.19,0.19 0.18,0.17 0.19,0.18 0.35,0.33 0.34,0.32 0.33,0.3 0.33,0.29 0.32,0.29 0.65,0.56 0.33,0.29 0.33,0.28 c 0,0.05 3.08,2.69 4.88,4.49 4.73,4.64 5.83,7.03 5.83,7.21 0,0.5 -0.46,0.5 -0.55,0.5 -0.35,0 -0.5,-0.09 -0.75,-0.54 -1.49,-2.39 -2.53,-3.19 -3.74,-3.19 -1.2,0 -1.79,0.75 -2.54,1.59 -0.94,1.16 -1.78,2.14 -3.44,2.14 -3.73,0 -6.02,-4.62 -6.02,-5.67 0,-0.25 0.14,-0.54 0.6,-0.54 0.45,0 0.54,0.25 0.64,0.54 0.95,2.3 3.84,2.35 4.23,2.35 1.05,0 2,-0.36 3.14,-0.75 2,-0.75 2.55,-0.75 3.85,-0.75 -1.8,-2.14 -5.99,-5.74 -6.92,-6.53 l -4.49,-4.18 c -3.39,-3.34 -5.14,-6.18 -5.14,-6.53 0,-0.5 0.5,-0.5 0.59,-0.5 0.41,0 0.5,0.1 0.8,0.64 1.16,1.75 2.64,3.1 4.24,3.1 1.15,0 1.65,-0.46 2.89,-1.89 0.86,-1.05 1.75,-1.85 3.18,-1.85 4.94,0 7.83,6.33 7.83,7.67 0,0.25 -0.2,0.5 -0.59,0.5 -0.46,0 -0.55,-0.29 -0.71,-0.65 -1.14,-3.24 -4.32,-4.17 -5.98,-4.17 -0.98,0 -1.89,0.29 -2.94,0.64 -1.68,0.64 -2.43,0.84 -3.48,0.84 -0.1,0 -0.89,0 -1.35,-0.14 z"
           inkscape:connector-curvature="0"
           style="fill:#000000;stroke-width:0" /><path
           id="path12853"
           d="m 487.35,402.45 -0.03,-0.11 -0.04,-0.12 -0.05,-0.12 -0.04,-0.12 -0.06,-0.12 -0.06,-0.13 -0.06,-0.13 -0.07,-0.12 -0.07,-0.13 -0.07,-0.13 -0.08,-0.13 -0.09,-0.12 -0.09,-0.13 -0.09,-0.12 -0.1,-0.12 -0.1,-0.12 -0.1,-0.12 -0.11,-0.11 -0.12,-0.1 -0.12,-0.1 -0.12,-0.1 -0.12,-0.09 -0.13,-0.08 -0.14,-0.08 -0.13,-0.07 -0.15,-0.06 -0.14,-0.05 -0.15,-0.05 -0.15,-0.04 -0.16,-0.02 -0.16,-0.02 h -0.16 c -0.11,0 -1.16,0 -1.89,0.48 1.43,0.45 1.53,1.72 1.53,1.92 0,0.77 -0.6,1.3 -1.39,1.3 -0.97,0 -1.99,-0.84 -1.99,-2.14 0,-1.74 1.95,-2.53 3.66,-2.53 1.61,0 3.03,1 3.9,2.47 0.83,-1.85 2.75,-2.47 4.14,-2.47 4.02,0 6.15,4.34 6.15,5.33 0,0.45 -0.46,0.45 -0.57,0.45 -0.48,0 -0.51,-0.17 -0.65,-0.59 -0.74,-2.41 -2.83,-4.22 -4.78,-4.22 -1.4,0 -2.13,0.93 -2.13,2.26 0,0.91 0.84,4.08 1.81,7.96 0.71,2.67 2.27,3.54 3.42,3.54 0.07,0 1.15,0 1.88,-0.48 -1.11,-0.31 -1.53,-1.3 -1.53,-1.92 0,-0.77 0.59,-1.29 1.39,-1.29 0.81,0 1.95,0.66 1.95,2.13 0,1.95 -2.23,2.53 -3.62,2.53 -1.74,0 -3.14,-1.14 -3.91,-2.47 -0.62,1.44 -2.22,2.47 -4.17,2.47 -3.91,0 -6.14,-4.28 -6.14,-5.33 0,-0.45 0.5,-0.45 0.59,-0.45 0.46,0 0.49,0.14 0.67,0.59 0.86,2.72 3.07,4.22 4.77,4.22 1.16,0 2.09,-0.62 2.09,-2.29 0,-0.71 -0.42,-2.44 -0.73,-3.63 z"
           inkscape:connector-curvature="0"
           style="fill:#000000;stroke-width:0" /></g>    </g>
    <g
       id="g12923"
       transform="matrix(1.509353,0,0,1.509353,122.21405,-18.345998)">
      <g
         word-spacing="normal"
         letter-spacing="normal"
         font-size-adjust="none"
         font-stretch="normal"
         font-weight="normal"
         font-variant="normal"
         font-style="normal"
         stroke-miterlimit="10.433"
         xml:space="preserve"
         transform="matrix(0.05710431,0,0,-0.05710431,-9.9932537,82.797112)"
         id="g12921"
         style="font-style:normal;font-variant:normal;font-weight:normal;font-stretch:normal;letter-spacing:normal;word-spacing:normal;text-anchor:start;fill:none;fill-opacity:1;fill-rule:evenodd;stroke:#000000;stroke-linecap:butt;stroke-linejoin:miter;stroke-miterlimit:10.43299961;stroke-dasharray:none;stroke-dashoffset:0;stroke-opacity:1"><path
           id="path12917"
           d="m 462.14,410.34 0.25,0.27 0.24,0.25 0.24,0.25 0.23,0.24 0.22,0.23 0.22,0.22 0.21,0.22 0.2,0.21 0.2,0.2 0.2,0.19 0.19,0.19 0.19,0.19 0.18,0.17 0.19,0.18 0.35,0.33 0.34,0.32 0.33,0.3 0.33,0.29 0.32,0.29 0.65,0.56 0.33,0.29 0.33,0.28 c 0,0.05 3.08,2.69 4.88,4.49 4.73,4.64 5.83,7.03 5.83,7.21 0,0.5 -0.46,0.5 -0.55,0.5 -0.35,0 -0.5,-0.09 -0.75,-0.54 -1.49,-2.39 -2.53,-3.19 -3.74,-3.19 -1.2,0 -1.79,0.75 -2.54,1.59 -0.94,1.16 -1.78,2.14 -3.44,2.14 -3.73,0 -6.02,-4.62 -6.02,-5.67 0,-0.25 0.14,-0.54 0.6,-0.54 0.45,0 0.54,0.25 0.64,0.54 0.95,2.3 3.84,2.35 4.23,2.35 1.05,0 2,-0.36 3.14,-0.75 2,-0.75 2.55,-0.75 3.85,-0.75 -1.8,-2.14 -5.99,-5.74 -6.92,-6.53 l -4.49,-4.18 c -3.39,-3.34 -5.14,-6.18 -5.14,-6.53 0,-0.5 0.5,-0.5 0.59,-0.5 0.41,0 0.5,0.1 0.8,0.64 1.16,1.75 2.64,3.1 4.24,3.1 1.15,0 1.65,-0.46 2.89,-1.89 0.86,-1.05 1.75,-1.85 3.18,-1.85 4.94,0 7.83,6.33 7.83,7.67 0,0.25 -0.2,0.5 -0.59,0.5 -0.46,0 -0.55,-0.29 -0.71,-0.65 -1.14,-3.24 -4.32,-4.17 -5.98,-4.17 -0.98,0 -1.89,0.29 -2.94,0.64 -1.68,0.64 -2.43,0.84 -3.48,0.84 -0.1,0 -0.89,0 -1.35,-0.14 z"
           inkscape:connector-curvature="0"
           style="fill:#000000;stroke-width:0" /><path
           id="path12919"
           d="m 498.05,411.9 0.01,0.02 0.01,0.03 v 0.02 l 0.01,0.02 0.01,0.02 v 0.02 l 0.01,0.04 0.01,0.03 0.01,0.03 0.01,0.04 0.01,0.03 v 0.02 l 0.01,0.03 0.01,0.03 v 0.02 l 0.01,0.02 v 0.02 0.02 l 0.01,0.02 v 0.02 0.02 l 0.01,0.02 v 0.02 0.03 0.03 0.04 0.03 0.02 0.02 l 0.01,0.02 v 0.02 c 0,0.69 -0.57,1.11 -1.16,1.11 -0.38,0 -1.05,-0.17 -1.42,-0.83 -0.11,-0.22 -0.39,-1.33 -0.57,-2.03 l -0.73,-2.89 c -0.2,-0.83 -1.28,-5.22 -1.39,-5.61 -0.03,0 -1.56,-3.03 -4.28,-3.03 -2.38,0 -2.38,2.26 -2.38,2.89 0,1.89 0.8,4.08 1.85,6.76 0.42,1.11 0.59,1.53 0.59,2.13 0,1.67 -1.42,2.95 -3.31,2.95 -3.52,0 -5.08,-4.73 -5.08,-5.33 0,-0.45 0.48,-0.45 0.59,-0.45 0.49,0 0.52,0.17 0.63,0.56 0.87,2.89 2.37,4.25 3.76,4.25 0.6,0 0.86,-0.39 0.86,-1.22 0,-0.79 -0.31,-1.56 -0.48,-2.01 -1.67,-4.25 -2.02,-5.55 -2.02,-7.08 0,-0.59 0,-2.23 1.36,-3.34 1.08,-0.91 2.55,-1.08 3.49,-1.08 1.39,0 2.64,0.51 3.79,1.56 -0.45,-1.92 -0.84,-3.37 -2.29,-5.12 -0.94,-1.08 -2.35,-2.22 -4.19,-2.22 -0.23,0 -1.87,0 -2.61,1.14 1.88,0.2 1.88,1.89 1.88,1.92 0,1.11 -1,1.31 -1.36,1.31 -0.86,0 -2.02,-0.69 -2.02,-2.3 0,-1.76 1.67,-3.06 4.14,-3.06 3.53,0 7.81,2.72 8.89,7.08 z"
           inkscape:connector-curvature="0"
           style="fill:#000000;stroke-width:0" /></g>    </g>
  </g>
</svg>
